HIERARCHY
ROOT hip
{
  OFFSET 0 0 0
  CHANNELS 6 Xposition Yposition Zposition Zrotation Yrotation Xrotation
  JOINT abdomen
  {
    OFFSET 0 20.6881 -0.73152
    CHANNELS 3 Zrotation Xrotation Yrotation
    JOINT chest
    {
      OFFSET 0 11.7043 -0.48768
      CHANNELS 3 Zrotation Xrotation Yrotation
      JOINT neck
      {
        OFFSET 0 22.1894 -2.19456
        CHANNELS 3 Zrotation Xrotation Yrotation
        JOINT head
        {
          OFFSET -0.24384 7.07133 1.2192
          CHANNELS 3 Zrotation Xrotation Yrotation
          JOINT leftEye
          {
            OFFSET 4.14528 8.04674 8.04672
            CHANNELS 3 Zrotation Xrotation Yrotation
            End Site
            {
              OFFSET 1 0 0
            }
          }
          JOINT rightEye
          {
            OFFSET -3.6576 8.04674 8.04672
            CHANNELS 3 Zrotation Xrotation Yrotation
            End Site
            {
              OFFSET 1 0 0
            }
          }
        }
      }
      JOINT rCollar
      {
        OFFSET -2.68224 19.2634 -4.8768
        CHANNELS 3 Zrotation Xrotation Yrotation
        JOINT rShldr
        {
          OFFSET -8.77824 -1.95073 1.46304
          CHANNELS 3 Zrotation Xrotation Yrotation
          JOINT rForeArm
          {
            OFFSET -28.1742 -1.7115 0.48768
            CHANNELS 3 Zrotation Xrotation Yrotation
            JOINT rHand
            {
              OFFSET -22.5879 0.773209 7.07136
              CHANNELS 3 Zrotation Xrotation Yrotation
              JOINT rThumb1
              {
                OFFSET -1.2192 -0.487915 3.41376
                CHANNELS 3 Zrotation Xrotation Yrotation
                JOINT rThumb2
                {
                  OFFSET -3.37035 -0.52449 3.41376
                  CHANNELS 3 Zrotation Xrotation Yrotation
                  End Site
                  {
                    OFFSET -1.78271 -1.18214 1.43049
                  }
                }
              }
              JOINT rIndex1
              {
                OFFSET -7.75947 0.938293 5.60832
                CHANNELS 3 Zrotation Xrotation Yrotation
                JOINT rIndex2
                {
                  OFFSET -2.54057 -0.884171 1.56538
                  CHANNELS 3 Zrotation Xrotation Yrotation
                  End Site
                  {
                    OFFSET -1.62519 -0.234802 1.16502
                  }
                }
              }
              JOINT rMid1
              {
                OFFSET -8.24714 1.18213 3.41376
                CHANNELS 3 Zrotation Xrotation Yrotation
                JOINT rMid2
                {
                  OFFSET -3.10165 -0.590103 1.0647
                  CHANNELS 3 Zrotation Xrotation Yrotation
                  End Site
                  {
                    OFFSET -2.48547 -0.328903 0.83742
                  }
                }
              }
              JOINT rRing1
              {
                OFFSET -8.82822 0.546677 1.51678
                CHANNELS 3 Zrotation Xrotation Yrotation
                JOINT rRing2
                {
                  OFFSET -2.60934 -0.819778 -0.0198488
                  CHANNELS 3 Zrotation Xrotation Yrotation
                  End Site
                  {
                    OFFSET -2.33842 -0.294052 0.168128
                  }
                }
              }
              JOINT rPinky1
              {
                OFFSET -8.27202 -0.0477905 -0.4584
                CHANNELS 3 Zrotation Xrotation Yrotation
                JOINT rPinky2
                {
                  OFFSET -1.82734 -0.647385 -0.700984
                  CHANNELS 3 Zrotation Xrotation Yrotation
                  End Site
                  {
                    OFFSET -1.69225 -0.51767 -0.607171
                  }
                }
              }
            }
          }
        }
      }
      JOINT lCollar
      {
        OFFSET 2.68224 19.2634 -4.8768
        CHANNELS 3 Zrotation Xrotation Yrotation
        JOINT lShldr
        {
          OFFSET 8.77824 -1.95073 1.46304
          CHANNELS 3 Zrotation Xrotation Yrotation
          JOINT lForeArm
          {
            OFFSET 28.1742 -1.7115 0.48768
            CHANNELS 3 Zrotation Xrotation Yrotation
            JOINT lHand
            {
              OFFSET 22.5879 0.773209 7.07136
              CHANNELS 3 Zrotation Xrotation Yrotation
              JOINT lThumb1
              {
                OFFSET 1.2192 -0.487915 3.41376
                CHANNELS 3 Zrotation Xrotation Yrotation
                JOINT lThumb2
                {
                  OFFSET 3.37035 -0.52449 3.41376
                  CHANNELS 3 Zrotation Xrotation Yrotation
                  End Site
                  {
                    OFFSET 1.78271 -1.18214 1.43049
                  }
                }
              }
              JOINT lIndex1
              {
                OFFSET 7.75947 0.938293 5.60832
                CHANNELS 3 Zrotation Xrotation Yrotation
                JOINT lIndex2
                {
                  OFFSET 2.54057 -0.884171 1.56538
                  CHANNELS 3 Zrotation Xrotation Yrotation
                  End Site
                  {
                    OFFSET 1.62519 -0.234802 1.16502
                  }
                }
              }
              JOINT lMid1
              {
                OFFSET 8.24714 1.18213 3.41376
                CHANNELS 3 Zrotation Xrotation Yrotation
                JOINT lMid2
                {
                  OFFSET 3.10165 -0.590103 1.0647
                  CHANNELS 3 Zrotation Xrotation Yrotation
                  End Site
                  {
                    OFFSET 2.48547 -0.328903 0.83742
                  }
                }
              }
              JOINT lRing1
              {
                OFFSET 8.82822 0.546677 1.51678
                CHANNELS 3 Zrotation Xrotation Yrotation
                JOINT lRing2
                {
                  OFFSET 2.60934 -0.819778 -0.0198488
                  CHANNELS 3 Zrotation Xrotation Yrotation
                  End Site
                  {
                    OFFSET 2.33842 -0.294052 0.168128
                  }
                }
              }
              JOINT lPinky1
              {
                OFFSET 8.27202 -0.0477905 -0.4584
                CHANNELS 3 Zrotation Xrotation Yrotation
                JOINT lPinky2
                {
                  OFFSET 1.82734 -0.647385 -0.700984
                  CHANNELS 3 Zrotation Xrotation Yrotation
                  End Site
                  {
                    OFFSET 1.69225 -0.51767 -0.607171
                  }
                }
              }
            }
          }
        }
      }
    }
  }
  JOINT rButtock
  {
    OFFSET -8.77824 4.35084 1.2192
    CHANNELS 3 Zrotation Xrotation Yrotation
    JOINT rThigh
    {
      OFFSET 0 -1.70687 -2.19456
      CHANNELS 3 Zrotation Xrotation Yrotation
      JOINT rShin
      {
        OFFSET 0 -36.8199 0.73152
        CHANNELS 3 Zrotation Xrotation Yrotation
        JOINT rFoot
        {
          OFFSET 0.73152 -45.1104 -5.12064
          CHANNELS 3 Zrotation Xrotation Yrotation
          End Site
          {
            OFFSET -1.1221 -3.69964 12.103
          }
        }
      }
    }
  }
  JOINT lButtock
  {
    OFFSET 8.77824 4.35084 1.2192
    CHANNELS 3 Zrotation Xrotation Yrotation
    JOINT lThigh
    {
      OFFSET 0 -1.70687 -2.19456
      CHANNELS 3 Zrotation Xrotation Yrotation
      JOINT lShin
      {
        OFFSET 0 -36.8199 0.73152
        CHANNELS 3 Zrotation Xrotation Yrotation
        JOINT lFoot
        {
          OFFSET -0.73152 -45.1104 -5.12064
          CHANNELS 3 Zrotation Xrotation Yrotation
          End Site
          {
            OFFSET 1.1221 -3.69964 12.103
          }
        }
      }
    }
  }
}
MOTION
Frames:	5
Frame Time:	0.00833333
5.12988 83.9933 -24.3631 0.0 0.0 0.0 -1.70622 -0.00254499 -0.0464502 -0.470561 0.00242733 -0.0814848 4.63496e-14 0.0 3.72722e-16 1.39087e-13 3.18055e-15 1.13991e-15 -0.0 0.0 0.0 -0.0 0.0 0.0 2.3357e-14 7.06617e-17 2.98177e-16 4.89893e-13 1.70209e-15 6.75868e-15 8.39279e-12 -2.46433e-12 -3.18055e-15 9.61037e-11 2.79494e-12 9.70069e-13 2.26681e-10 7.12899e-13 2.10553e-12 3.91454e-10 1.22769e-12 3.6314e-12 2.26686e-10 7.14432e-13 2.09599e-12 7.73091 5.47488 0.417314 2.2668e-10 7.12941e-13 2.10553e-12 2.90554 0.965183 0.102902 2.26691e-10 7.13041e-13 2.10632e-12 10.2786 0.731801 0.0259123 2.26682e-10 7.13637e-13 2.11189e-12 2.22167 -0.733487 -0.20892 2.32595e-14 7.18265e-17 0.0 4.8563e-13 1.38528e-15 5.1684e-15 8.3983e-12 2.56273e-12 0.0 9.60627e-11 -2.245e-12 9.82791e-13 2.26616e-10 6.87731e-13 2.09599e-12 3.91362e-10 1.18953e-12 3.62345e-12 2.26611e-10 6.87795e-13 2.10553e-12 -7.73091 5.47488 -0.417314 2.26615e-10 6.88391e-13 2.10235e-12 -2.90554 0.965183 -0.102902 2.26613e-10 6.87795e-13 2.09996e-12 -10.2786 0.731801 -0.0259123 2.26616e-10 6.88988e-13 2.0928e-12 -2.22167 -0.733487 0.20892 -2.03217e-16 0.0 -3.88251e-19 -0.810649 -1.92439 -0.00361241 -0.00901505 -2.07859 -0.0743094 -0.483818 3.99775 0.136131 2.03217e-16 0.0 3.88251e-19 -1.78654 -6.85421 0.170483 -0.00323778 6.85137 -0.0863829 0.513088 -0.00230885 -0.0581994
3.22362 82.6005 -25.8148 3.3592 -39.2985 2.2154 -2.92243 1.08131 -0.276948 0.882873 -0.360036 -0.155142 -3.79594 -1.78092 -1.68639 3.23561 -3.96787 -1.43561 -0.0 0.0 0.0 -0.0 0.0 0.0 1.8515e-15 4.37381e-14 3.02676e-13 20.0539 6.96082 0.500041 -5.4972 -2.81792 8.21154 0.0191847 3.07816 0.430366 -1.2035e-09 1.95818e-09 1.75134e-10 -2.07896e-09 3.39124e-09 3.1803e-10 -1.2035e-09 1.95818e-09 1.75126e-10 7.73091 5.47488 0.417314 -1.2035e-09 1.95818e-09 1.75133e-10 2.90554 0.965183 0.102902 -1.20349e-09 1.95818e-09 1.75135e-10 10.2786 0.731801 0.0259123 -1.2035e-09 1.95818e-09 1.75141e-10 2.22167 -0.733487 -0.20892 1.76091e-15 4.37374e-14 3.02374e-13 -22.2859 4.05528 -0.628603 4.1873 -1.89612 -6.54723 -0.0205685 3.18412 -0.445011 -1.35404e-09 1.47481e-09 5.5526e-10 -2.33369e-09 2.57691e-09 9.77057e-10 -1.35404e-09 1.47481e-09 5.55269e-10 -7.73091 5.47488 -0.417314 -1.35404e-09 1.47481e-09 5.55264e-10 -2.90554 0.965183 -0.102902 -1.35404e-09 1.47481e-09 5.55263e-10 -10.2786 0.731801 -0.0259123 -1.35403e-09 1.47481e-09 5.55257e-10 -2.22167 -0.733487 0.20892 -2.03217e-16 0.0 -3.88251e-19 -2.25142 -5.24677 2.92499 -0.0162179 6.50451 0.035678 -0.352514 -1.00957 0.847612 2.03217e-16 0.0 3.88251e-19 -1.57696 -11.6012 0.149318 0.0084434 13.3198 -0.154619 0.611785 -1.85597 1.51139
3.28044 82.592 -25.6706 3.2584 -39.638 2.3531 -4.18945 2.23337 -0.525425 2.3092 -0.744916 -0.234325 -7.91293 -3.6771 -3.46946 6.44071 -8.0729 -2.97225 -0.0 0.0 0.0 -0.0 0.0 0.0 -2.20237e-14 9.31383e-14 6.35965e-13 41.1521 14.3018 1.02866 -10.4137 -5.58136 16.9195 -0.0112072 6.35184 0.892317 -2.78805e-09 4.13843e-09 3.57858e-10 -4.81612e-09 7.16707e-09 6.50838e-10 -2.78805e-09 4.13843e-09 3.57851e-10 7.73091 5.47488 0.417314 -2.78805e-09 4.13843e-09 3.57856e-10 2.90554 0.965183 0.102902 -2.78804e-09 4.13843e-09 3.5786e-10 10.2786 0.731801 0.0259123 -2.78805e-09 4.13843e-09 3.57866e-10 2.22167 -0.733487 -0.20892 -2.21079e-14 9.31355e-14 6.35657e-13 -45.7511 8.34596 -1.30787 8.14158 -3.8149 -13.4846 0.0118531 6.56247 -0.921858 -3.102e-09 3.10649e-09 1.18192e-09 -5.34707e-09 5.42796e-09 2.07938e-09 -3.102e-09 3.10649e-09 1.18193e-09 -7.73091 5.47488 -0.417314 -3.102e-09 3.10648e-09 1.18192e-09 -2.90554 0.965183 -0.102902 -3.102e-09 3.10648e-09 1.18192e-09 -10.2786 0.731801 -0.0259123 -3.10199e-09 3.10648e-09 1.18192e-09 -2.22167 -0.733487 0.20892 -2.03217e-16 0.0 -3.88251e-19 -3.39362 -8.71612 6.06416 -0.0605586 15.5764 0.157277 -0.0812453 -6.30977 1.59173 2.03217e-16 0.0 3.88251e-19 -1.35744 -16.6198 0.110653 0.0387649 20.1523 -0.232808 0.824755 -3.80367 3.16471
3.35517 82.5887 -25.5216 3.1937 -39.8329 2.4057 -5.32865 3.24878 -0.738982 3.58694 -1.08495 -0.302501 -11.703 -5.3242 -5.07869 9.09983 -11.8734 -4.39063 -0.0 0.0 0.0 -0.0 0.0 0.0 -4.11596e-14 1.31073e-13 9.07431e-13 59.7754 20.8759 1.59371 -14.133 -7.76066 24.8474 -0.0827092 9.23238 1.30616 -4.06386e-09 5.87312e-09 5.21191e-10 -7.01978e-09 1.01713e-08 9.46827e-10 -4.06386e-09 5.87312e-09 5.21185e-10 7.73091 5.47488 0.417314 -4.06386e-09 5.87312e-09 5.21188e-10 2.90554 0.965183 0.102902 -4.06385e-09 5.87312e-09 5.21193e-10 10.2786 0.731801 0.0259123 -4.06386e-09 5.87312e-09 5.212e-10 2.22167 -0.733487 -0.20892 -4.12362e-14 1.31069e-13 9.07122e-13 -66.5855 12.1599 -1.92428 11.2853 -5.39187 -19.7218 0.0884399 9.55004 -1.35171 -4.51534e-09 4.42305e-09 1.66159e-09 -7.7838e-09 7.72834e-09 2.92392e-09 -4.51534e-09 4.42305e-09 1.6616e-09 -7.73091 5.47488 -0.417314 -4.51534e-09 4.42305e-09 1.66159e-09 -2.90554 0.965183 -0.102902 -4.51534e-09 4.42305e-09 1.66159e-09 -10.2786 0.731801 -0.0259123 -4.51533e-09 4.42305e-09 1.66158e-09 -2.22167 -0.733487 0.20892 -2.03217e-16 0.0 -3.88251e-19 -4.09927 -11.7715 8.93478 -0.135612 23.6705 0.278278 0.288597 -11.0158 2.31349 2.03217e-16 0.0 3.88251e-19 -1.16851 -21.0951 0.107477 0.0835941 26.2563 -0.312041 1.1147 -5.54687 4.67012
3.4202 82.589 -25.3532 3.2086 -40.0779 2.3661 -6.16787 3.92278 -0.864192 4.49531 -1.31289 -0.343117 -14.4494 -6.36644 -6.2339 10.8016 -14.9393 -5.44263 -0.0 0.0 0.0 -0.0 0.0 0.0 -4.84469e-14 1.40344e-13 1.02434e-12 72.4567 25.5371 2.17342 -16.4511 -9.11323 30.6309 -0.154446 11.1322 1.58472 -4.56782e-09 6.49391e-09 6.36047e-10 -7.88966e-09 1.12465e-08 1.15077e-09 -4.56782e-09 6.49391e-09 6.36041e-10 7.73091 5.47488 0.417314 -4.56782e-09 6.49391e-09 6.36044e-10 2.90554 0.965183 0.102902 -4.56781e-09 6.49391e-09 6.36049e-10 10.2786 0.731801 0.0259123 -4.56782e-09 6.49391e-09 6.36057e-10 2.22167 -0.733487 -0.20892 -4.85134e-14 1.40339e-13 1.02404e-12 -81.0407 14.7879 -2.34612 13.2881 -6.39414 -24.1325 0.166843 11.563 -1.64772 -5.09212e-09 4.95184e-09 1.77377e-09 -8.77895e-09 8.65202e-09 3.12401e-09 -5.09212e-09 4.95184e-09 1.77378e-09 -7.73091 5.47488 -0.417314 -5.09212e-09 4.95184e-09 1.77377e-09 -2.90554 0.965183 -0.102902 -5.09212e-09 4.95184e-09 1.77377e-09 -10.2786 0.731801 -0.0259123 -5.09211e-09 4.95184e-09 1.77376e-09 -2.22167 -0.733487 0.20892 -2.03217e-16 0.0 -3.88251e-19 -4.44215 -13.9015 10.9988 -0.211369 29.32 0.374486 0.649921 -14.2436 2.9353 2.03217e-16 0.0 3.88251e-19 -1.03405 -24.2115 0.198148 0.126902 30.5393 -0.376325 1.38674 -6.79384 5.78782
